Patient4_TMGait_0pt4_03_right_03_EMG.mot
version=1
nRows=40
nColumns=33
inDegrees=no
endheader
time	1LAddLong	2LGlutMax	3LGlutMed	4LIliopsoas	5LSemiMemb	6LBicFemLong	7LRecFem	8LVastMed	9LVastLat	10LGasMed	11LTibAnt	12lTibPost	13LPeroneusLong	14LSol	15LExtDigLong	16LFlexDigLong	17RAddLong	18RGlutMax	19RGlutMed	20RIliopsoas	21RSemiMemb	22RBicFemLong	23RRecFem	24RVastMed	25RVastLat	26RGasMed	27RTibAnt	28RTibPost	29RPeroneusLong	30RSol	31RExtDigLong	32RFlexDigLong
3.275	0.016174	-0.015869	0.33875	0.001526	0.005798	-0.046082	-0.096436	-0.006256	0.19653	-0.003967	0.030212	0.005798	0.094147	0.15625	-0.34317	-0.005646	0.083618	0.28473	0.34866	0.02655	-0.34607	-0.32745	0.30136	-0.15625	-0.112	0.010529	0.063934	0.11551	-0.26718	0.35095	0.001831	-0.00824
3.276	0.006256	0.049744	0.31326	0.04776	0.008087	0.000305	-0.063934	-0.007172	0.19562	0.028687	0.088501	0.002899	0.017853	0.041656	-0.46616	-0.023651	-0.030975	0.25864	-0.70923	0.1503	-0.41016	-0.17639	0.33234	-0.12528	-0.045166	0.043793	0.031281	0.055389	0.059204	-0.16525	-0.002594	-0.008698
3.277	0.002289	0.048523	0.29556	0.048065	-0.005798	0.038757	-0.043488	-0.005951	0.19379	0.065765	0.070496	0.009613	-0.031891	0.06958	-0.25925	-0.014954	-0.057678	0.37003	-1.6098	0.10376	-0.20325	-0.099792	0.35919	-0.063629	-0.045624	0.050964	-0.007324	-0.024261	0.1561	-0.17227	0.000916	0.001526
3.278	0.001678	0.039063	0.29617	0.000305	-0.005341	0.030823	-0.011292	-0.001831	0.1886	0.043182	0.15152	0.005493	-0.00061	-0.007324	-0.4248	-0.007782	-0.032806	-0.14862	-1.2154	0.019226	0.1265	-0.002747	0.35873	-0.028839	-0.067291	-0.028839	0.021362	-0.11459	-0.15427	-0.022583	-0.003662	-0.012054
3.279	0.011139	-0.02121	0.25772	-0.014191	-0.010376	0.006866	0.035858	-0.004578	0.1532	0.025482	0.014801	0.001373	0.008087	-0.027161	-0.3775	-0.008087	-0.086823	-0.91995	-1.1002	0.005798	0.23514	-0.011597	0.35767	0.034637	-0.071716	-0.19699	0.048981	-0.18646	-0.50934	0.28351	-0.001373	0.003204
3.28	0.015717	-0.009918	0.23666	-0.017548	-0.004578	-0.007019	0.022736	0.002747	0.13351	-0.01297	-0.14984	0.003204	0.028687	-0.050964	0.31509	-0.010834	-0.054016	-1.0245	-0.93262	-0.005798	0.13748	-0.087128	0.31891	0.03006	-0.039673	-0.16693	0.050201	-0.13168	-1.0117	0.19974	-0.002899	0.001221
3.281	0.007935	0.061798	0.21591	-0.004883	0.005646	-0.033264	0.025482	-0.003204	0.13077	-0.006866	0.001831	0.005646	-0.051727	-0.093689	0.57922	-0.001984	-0.00061	-0.99716	-0.10819	-0.048218	0.05188	-0.082245	0.27451	-0.014038	0.010529	-0.10666	0.031281	0.032196	-0.76736	0.26886	-0.00061	-0.024414
3.282	0.00824	0.067139	0.18524	-0.008392	0.01709	-0.038605	0.016632	-0.002899	0.11993	0.002136	-0.06546	0.001678	-0.080719	-0.10788	-0.032349	-0.005493	0.022888	-1.1411	-0.23605	-0.029297	0.005646	-0.08728	0.3096	0.036926	0.029907	-0.08606	0.054169	0.089722	-0.37643	-0.32654	-0.002136	-0.018311
3.283	0.006561	0.053253	0.14328	-0.005188	0.018005	-0.078278	-0.002289	-0.003662	0.10452	0.036621	0.074768	0.009003	-0.12619	-0.11246	-0.048828	-0.014801	-0.014343	-1.3811	-0.28412	0.001831	-0.17273	-0.088196	0.37689	0.028839	0.000916	-0.0737	0.058899	0.17929	0.12314	-0.3212	-0.002289	-0.020447
3.284	0.006866	0.04776	0.070648	0.006104	-0.006409	-0.090027	0.002441	0.006409	0.12482	0.033569	0.18906	0.002747	-0.069122	-0.079498	-0.14404	-0.018768	-0.031891	-1.5442	-0.68253	0.092316	-0.38742	-0.019226	0.40817	-0.030518	-0.027771	0.016937	0.063477	0.1062	0.29205	-0.019684	-0.003052	-0.022583
3.285	0.004578	0.023499	0.038452	-0.005493	-0.004272	-0.064087	0.036011	-0.001373	0.13763	-0.002136	0.094147	0.014496	-0.006409	0.023499	-0.26581	-0.02121	-0.035095	-1.7657	-1.3271	0.036316	-0.46112	0.11978	0.38528	-0.015259	-0.027618	-0.037231	0.10956	0.005798	0.20737	-0.26428	-0.002441	-0.01358
3.286	-0.006866	0.09201	0.041046	0.003052	0.007629	-0.022278	0.072937	-0.00473	0.12878	-0.00473	-0.003357	0.003052	0.072784	-0.066376	-0.51163	0.006714	-0.028534	-1.7165	0.068054	-0.16327	-0.25345	0.23789	0.17639	-0.001068	0.015106	-0.082397	0.088806	-0.11093	0.24643	-0.066528	-0.003052	-0.010529
3.287	0.003204	0.086212	-0.07019	0.023804	0.002289	-0.033264	0.057678	-0.000916	0.14496	0.025177	0.078735	0.007629	0.035248	-0.10681	0.061798	0.005493	-0.063477	-1.5987	0.48675	-0.075226	-0.20981	0.19165	0.11978	0.1152	0.058136	-0.037994	0.058289	-0.036469	0.46127	0.15427	-0.005951	0.001221
3.288	-0.002594	0.075226	-0.10071	0.023804	-0.000916	-0.044098	0.073395	0.005341	0.14572	0.040894	0.2919	0.007477	-0.021667	-0.018005	0.50125	0.002441	-0.072937	-1.579	-0.11826	0.033569	0.47684	0.054321	0.17609	0.16205	0.019684	0.058289	-0.001221	0.027008	0.16342	-0.44571	-0.00473	0.005035
3.289	-0.000305	0.078125	-0.16281	0.027161	0.002136	-0.032349	0.1268	0.00412	0.15656	0.016327	0.23758	0.014801	-0.041962	0.0737	0.38025	0.018768	-0.050201	-1.5346	-0.4837	-0.043335	0.392	-0.05127	0.069275	0.12405	0.025482	0.011139	-0.019226	0.031128	-0.30746	-0.51178	-0.005951	0.011902
3.29	0.003357	0.097961	-0.19211	0.007019	-0.000153	-0.037842	0.15564	-0.001984	0.15778	-0.003052	0.056152	0.007172	-0.043793	0.10452	0.13382	0.020599	-0.042267	-1.5257	-0.4866	-0.090942	0.1297	-0.050659	-0.000763	0.19134	0.073547	0.010071	-0.041046	0.027618	-0.65659	0.13657	-0.000458	0.0177
3.291	0.006256	0.087128	-0.19028	-0.005951	-0.007782	-0.034637	0.18539	0.006409	0.1535	-0.011749	-0.30563	0.009918	-0.067749	0.12512	1.0834	0.023041	-0.009918	-1.3727	-1.337	-0.11353	0.037231	-0.054321	-0.10941	0.12421	-0.004272	0.055389	0.037994	-0.018005	-0.84	0.44846	-0.009766	0.026093
3.292	0.021362	0.05661	-0.23712	-0.005341	-0.005341	-0.056763	0.14297	0.015564	0.12695	-0.014648	-0.28412	0.006561	-0.065308	0.14175	0.1004	0.032654	0.023041	-1.2968	-1.7552	-0.095062	-0.030975	-0.11475	-0.045624	0.016632	-0.037842	-0.00885	0.089874	-0.3009	-0.5632	0.23712	-0.009308	0.026703
3.293	0.020447	0.043488	-0.31174	0.003662	-0.005035	-0.057831	0.10986	0.009918	0.12375	-0.026855	-0.097351	0.007172	-0.037689	0.10452	0.793	0.03952	0.001221	-1.2622	-0.93018	0.099335	-0.024261	-0.20111	0.012665	0.003815	0.009308	-0.16449	0.039978	-0.5983	-0.21439	0.30777	-0.002441	0.004272
3.294	0.016327	0.033875	-0.33386	-0.005188	-0.005798	-0.07019	0.08606	0.005493	0.11185	-0.029449	-0.059967	0	0.002747	0.14618	-1.3028	0.025787	0.005798	-1.0893	-0.63004	0.24765	0.027313	-0.28046	0.11856	-0.099945	-0.047302	-0.078735	0.008545	0.46661	0.44327	0.79269	-0.005951	0.019073
3.295	0.007172	-0.001373	-0.35706	-0.017853	-0.000458	-0.054626	0.11215	0.00946	0.11185	-0.004578	-0.009003	0.007324	0.005035	0.14572	-0.77682	0.015869	-0.022888	-0.96222	-0.98373	0.35843	0.055237	-0.14023	0.096588	-0.14328	-0.094299	0.039978	-0.028534	0.28793	0.53146	0.84259	-0.007477	0.017395
3.296	-0.000305	0.067902	-0.39673	-0.013428	-0.004883	-0.056458	0.081024	0.010529	0.099182	0.02121	-0.031891	0.001221	-0.044708	0.069733	-0.55908	0.004578	-0.031128	-0.75455	-0.021515	0.23758	0.013428	0.020752	0.015564	-0.08728	-0.12253	0.215	0.01709	-0.11139	0.41901	0.44525	-0.001984	0.02243
3.297	-0.002594	0.041809	-0.48569	0.000153	-0.002594	-0.049438	0.061035	0.005188	0.093384	0.023804	0.006561	0.006866	0.031281	0.003204	-0.37445	0.02182	-0.031586	-0.71106	0.51239	0.13504	-0.17517	0.097656	-0.087585	-0.03006	-0.090027	0.17212	0.093384	0.041199	0.41718	0.72159	-0.00824	0.0177
3.298	0.001984	-0.034637	-0.55618	0.009613	0.00061	-0.039063	0.032043	0.010986	0.1033	0.004578	-0.005646	0.001984	0.039825	-0.034027	-0.16251	0.022278	-0.025177	-0.82123	0.10025	-0.015564	-0.112	0.014191	-0.26489	-0.058441	0.000153	0.10208	0.08194	0.083923	0.35812	0.63553	-0.008545	0.016022
3.299	-0.005798	-0.063171	-0.5748	0.009918	0	-0.050964	0.042114	0.006409	0.098877	0.007782	0.063171	0.00824	-0.014648	-0.038757	-0.068054	0.030823	0.007324	-0.77286	0.13779	-0.046387	-0.080566	-0.052185	-0.33356	-0.12344	0.072784	0.045776	0.11765	0.10895	0.45197	-0.10269	-0.007935	0.013885
3.3	0.002441	-0.074005	-0.52948	0.002899	-0.003052	-0.022583	0.1387	0.007935	0.10223	0.004272	0.006714	0.006409	0.000763	-0.091553	-0.14206	0.027313	0.010223	-0.65506	0.20508	-0.076294	-0.10193	-0.072784	-0.27298	-0.013123	0.13184	0.009308	0.10941	0.04364	0.37582	-0.15457	-0.002441	0.011444
3.301	-0.011444	-0.041046	-0.47653	0.011597	-0.003357	-0.013275	0.13672	0.007629	0.090485	0.003052	-0.17822	0.00885	0.004272	-0.058594	-0.081177	0.025635	0.019226	-0.57114	-0.14786	-0.077362	-0.12894	-0.01358	-0.18997	0.16724	0.15671	-0.029907	0.12405	0.06485	0.2803	0.20462	-0.000916	0.00351
3.302	-0.007477	-0.057983	-0.45456	-0.005341	-0.014954	0.002747	0.14114	0.010986	0.089722	0.003052	-0.10941	0.011292	0.001678	-0.072632	0.16647	0.027924	0.025635	-0.63751	-1.6057	-0.009155	-0.12054	0.035858	-0.068817	0.072632	0.079346	-0.031281	0.13138	-0.063934	-0.16419	-0.13001	-0.001221	-0.003967
3.303	-0.004272	-0.078735	-0.35538	-0.035553	-0.008545	0.005493	0.12619	0.010681	0.094604	0.023041	0.033875	0.007019	-0.06424	-0.10101	0.42648	0.014648	0.012512	-0.56122	-1.1882	-0.020142	-0.12848	0.059204	-0.10925	0.030975	0.045776	-0.006866	0.052643	-0.071411	-0.97092	-0.21606	0	0.00946
3.304	0.002136	-0.076141	-0.35385	-0.024414	-0.009003	0.00824	0.088348	0.009308	0.08667	-0.002136	0.11673	0.001526	-0.069427	-0.003357	0.2243	0.0177	0.004578	-0.45319	-0.45013	-0.082245	0.11185	0.077667	-0.14236	0.025024	0.008087	0.00824	-0.015106	-0.11261	-0.55649	-0.32867	0.001373	0.020447
3.305	-0.002899	-0.074921	-0.35446	-0.023804	-0.01297	0.007019	0.089111	0.008392	0.085449	-0.007935	0.058136	0.005646	-0.027313	0.036163	0.18417	0.035553	0.03067	-0.35324	-0.060577	-0.12817	0.10101	0.044861	-0.11475	0.040741	0.002289	-0.055084	-0.059509	-0.25803	-0.54977	-0.81131	-0.003662	0.030212
3.306	0.00824	-0.081635	-0.35461	0.004425	-0.014954	-0.014191	0.1181	0.004272	0.07431	0.009155	0.020905	0.008698	-0.043335	-0.034637	0.28503	0.020294	0.027008	-0.40253	0.21759	-0.16129	0.020447	-0.038605	-0.081635	0.07431	0.012665	-0.12848	-0.049286	-0.48706	0.12039	-1.6025	-0.005188	0.009918
3.307	0.003815	-0.092926	-0.3421	0.009918	-0.004578	-0.005341	0.11612	0.008087	0.074768	0.005646	-0.0354	0.010529	-0.02594	-0.076904	0.17624	0.027771	0.031281	-0.40558	0.96435	-0.22964	-0.032806	-0.056763	-0.074463	0.063629	0.008392	-0.031738	-0.038452	-0.2623	0.69672	-1.5938	-0.004883	-0.02121
3.308	0.000763	-0.081635	-0.30762	-0.004578	-0.002136	0.010071	0.089874	0.007019	0.086517	0.007324	-0.12619	0.010376	0.010223	-0.024719	0.46158	0.025482	0.02182	-0.47455	0.39734	-0.15396	-0.053558	-0.063934	-0.049591	0.04364	-0.011139	0.048828	0.02594	0.15976	0.53345	-0.3035	-0.000763	-0.036011
3.309	0.000763	-0.072937	-0.2948	-0.003967	-0.002289	0.001068	0.070801	0.010376	0.07431	0.023193	0.005341	0.009003	-0.071259	0.01358	0.35584	0.022583	-0.012665	-0.47592	-0.27695	-0.062408	-0.02243	0.033264	-0.045319	-0.013885	-0.009918	0.044708	0.023804	0.29739	0.4303	-0.33081	-0.000305	-0.020599
3.31	-0.005035	-0.077515	-0.31601	0.002747	-0.004272	0.014801	0.088654	0.011292	0.076141	-0.018616	0.16571	0.019073	0.002747	0.093536	0.94528	0.03418	-0.010834	-0.3537	-0.078125	-0.03067	-0.087891	0.11627	-0.077362	0.047607	0.021973	0.01358	-0.016632	0.70511	0.38574	0.008698	-0.004578	-0.018616
3.311	0.00946	-0.087585	-0.27252	0.009003	-0.004425	-0.017853	0.098724	0.010071	0.075836	-0.075836	0.089874	0.006409	0.12863	0.14999	-0.52109	0.019989	-0.011444	-0.33035	-0.010223	-0.042725	-0.12955	0.13306	-0.084381	0.02533	-0.029449	-0.011292	0.0383	0.31525	0.046387	0.87891	-0.002136	-0.020599
3.312	-0.000763	-0.089874	-0.28717	0.005951	0.002747	-0.007324	0.12253	0.006104	0.063477	-0.042877	0.082703	0.010529	0.025482	0.10986	-0.33173	0.018921	-0.006561	-0.19836	-0.6839	0.042725	-0.054932	0.10452	-0.11093	0.000153	-0.045929	-0.007019	0.11444	0.07782	0.064087	1.0483	-0.001831	-0.021362
3.313	-0.006561	-0.094452	-0.35324	0.007629	-0.008545	0.015259	0.11932	0.006866	0.036316	-0.013275	0.28091	0.011749	-0.056305	0.13931	-0.25513	0.004883	0.010834	-0.063171	-0.80414	0.027313	0.01297	0.039673	-0.11124	-0.023346	0.018921	-0.027466	0.20035	-0.001068	0.073242	0.9108	0.00061	-0.022888
3.314	0.006409	-0.094604	-0.36179	-0.002441	-0.007782	0.011292	0.14633	0.00824	0.036774	0.013275	0.33005	0.017548	-0.18234	0.11765	-0.23468	0.000458	0.042114	0.077667	-0.3862	0.035095	0.09903	-0.043335	-0.11002	0.003967	0.004272	-0.030365	0.22888	0.016632	0.01358	0.52689	-0.000458	-0.027008
